<svg xmlns="http://www.w3.org/2000/svg" version="1.1" xmlns:xlink="http://www.w3.org/1999/xlink" xmlns:svgjs="http://svgjs.dev/svgjs" width="2000" height="1252" viewBox="0 0 2000 1252"><g transform="matrix(1,0,0,1,-1.2121212121212466,-2.01935483870966)"><svg viewBox="0 0 396 248" data-background-color="#ffffff" preserveAspectRatio="xMidYMid meet" height="1252" width="2000" xmlns="http://www.w3.org/2000/svg" xmlns:xlink="http://www.w3.org/1999/xlink"><g id="tight-bounds" transform="matrix(1,0,0,1,0.2400000000000091,0.4000000000000057)"><svg viewBox="0 0 395.52 247.2" height="247.2" width="395.52"><g><svg></svg></g><g><svg viewBox="0 0 395.52 247.2" height="247.2" width="395.52"><g transform="matrix(1,0,0,1,39.55199999999999,72.63179110797458)"><svg viewBox="0 0 316.416 101.93641778405082" height="101.93641778405082" width="316.416"><g><svg viewBox="0 0 316.416 101.93641778405082" height="101.93641778405082" width="316.416"><g><svg viewBox="0 0 316.416 101.93641778405082" height="101.93641778405082" width="316.416"><g><svg viewBox="0 0 316.416 101.93641778405082" height="101.93641778405082" width="316.416"><g id="textblocktransform"><svg viewBox="0 0 316.416 101.93641778405082" height="101.93641778405082" width="316.416" id="textblock"><g><svg viewBox="0 0 316.416 101.93641778405082" height="101.93641778405082" width="316.416"><g transform="matrix(1,0,0,1,0,0)"><svg width="316.416" viewBox="3.98 -38.57 138.37 44.58" height="101.93641778405082" data-palette-color="#0074d9"><path d="M8.47-24.12L8.47 0 3.98 0 3.98-35.16 10.28-35.16 31.64-11.01 31.64-35.16 36.11-35.16 36.11 0 29.81 0 8.47-24.12ZM71.41-28.2L71.41 0 63.16 0 63.16-3.37Q61.69-1.37 59.63-0.4 57.57 0.56 55.1 0.56L55.1 0.56Q51.88 0.56 49.34-0.59 46.8-1.73 45.04-3.72 43.28-5.71 42.36-8.4 41.43-11.08 41.43-14.16L41.43-14.16Q41.43-17.24 42.36-19.92 43.28-22.61 45.04-24.6 46.8-26.59 49.34-27.73 51.88-28.88 55.1-28.88L55.1-28.88Q56.74-28.88 58.21-28.39 59.69-27.91 60.92-27.01 62.16-26.12 63.1-24.87 64.04-23.61 64.57-22.07L64.57-22.07 68.23-28.2 71.41-28.2ZM63.11-14.16L63.11-14.16Q63.11-15.26 63-16.48 62.89-17.7 62.62-18.9 62.35-20.09 61.87-21.18 61.4-22.27 60.65-23.11 59.91-23.95 58.86-24.44 57.81-24.93 56.42-24.93L56.42-24.93Q55.03-24.93 54-24.43 52.98-23.93 52.24-23.08 51.51-22.24 51.04-21.14 50.56-20.04 50.29-18.85 50.02-17.65 49.91-16.44 49.8-15.23 49.8-14.16L49.8-14.16Q49.8-13.09 49.91-11.87 50.02-10.64 50.29-9.45 50.56-8.25 51.04-7.15 51.51-6.05 52.24-5.21 52.98-4.37 54-3.87 55.03-3.37 56.42-3.37L56.42-3.37Q57.69-3.37 58.68-3.89 59.67-4.42 60.41-5.3 61.15-6.18 61.67-7.3 62.18-8.42 62.5-9.62 62.81-10.82 62.96-12 63.11-13.18 63.11-14.16ZM107.12-16.16L107.12-16.16Q107.12-13.31 106.43-10.21 105.73-7.1 104.49-4.13 103.24-1.15 101.51 1.48 99.78 4.1 97.7 6.01L97.7 6.01 94.6 4.32Q95.26 3.1 95.84 1.59 96.43 0.07 96.91-1.62 97.38-3.32 97.76-5.13 98.14-6.93 98.4-8.7 98.65-10.47 98.79-12.15 98.92-13.82 98.92-15.26L98.92-15.26Q98.92-16.21 98.85-17.3 98.77-18.38 98.54-19.47 98.31-20.56 97.92-21.56 97.53-22.56 96.88-23.32 96.24-24.07 95.32-24.54 94.4-25 93.16-25L93.16-25Q91.94-25 90.99-24.45 90.03-23.9 89.3-23.01 88.57-22.12 88.04-20.97 87.52-19.82 87.19-18.62 86.86-17.41 86.71-16.24 86.57-15.06 86.57-14.14L86.57-14.14 86.57 0 78.29 0 78.29-38.57 86.54-38.57 86.54-24.05Q88.13-26.37 90.44-27.62 92.74-28.88 95.55-28.88L95.55-28.88Q98.48-28.88 100.65-27.93 102.83-26.98 104.27-25.28 105.71-23.58 106.42-21.25 107.12-18.92 107.12-16.16ZM142.35-14.16L142.35-14.16Q142.35-11.96 141.76-10.03 141.18-8.11 140.14-6.47 139.1-4.83 137.64-3.53 136.17-2.22 134.43-1.32 132.68-0.42 130.69 0.07 128.7 0.56 126.6 0.56L126.6 0.56Q124.5 0.56 122.53 0.07 120.55-0.42 118.8-1.32 117.06-2.22 115.59-3.53 114.13-4.83 113.09-6.47 112.05-8.11 111.47-10.05 110.88-11.99 110.88-14.16L110.88-14.16Q110.88-16.33 111.47-18.27 112.05-20.21 113.09-21.85 114.13-23.49 115.59-24.79 117.06-26.1 118.8-27 120.55-27.91 122.53-28.39 124.5-28.88 126.6-28.88L126.6-28.88Q128.7-28.88 130.69-28.39 132.68-27.91 134.43-27 136.17-26.1 137.64-24.79 139.1-23.49 140.14-21.85 141.18-20.21 141.76-18.27 142.35-16.33 142.35-14.16ZM133.95-14.16L133.95-14.16Q133.95-15.33 133.82-16.64 133.68-17.94 133.37-19.2 133.05-20.46 132.5-21.62 131.95-22.78 131.14-23.65 130.34-24.51 129.22-25.04 128.09-25.56 126.6-25.56L126.6-25.56Q125.19-25.56 124.09-25.02 122.99-24.49 122.17-23.6 121.35-22.71 120.81-21.53 120.26-20.36 119.91-19.1 119.57-17.85 119.43-16.56 119.28-15.28 119.28-14.16L119.28-14.16Q119.28-13.04 119.43-11.76 119.57-10.47 119.91-9.2 120.26-7.93 120.81-6.77 121.35-5.62 122.17-4.72 122.99-3.83 124.09-3.3 125.19-2.76 126.6-2.76L126.6-2.76Q128.07-2.76 129.19-3.28 130.31-3.81 131.13-4.69 131.95-5.57 132.49-6.71 133.02-7.86 133.35-9.13 133.68-10.4 133.82-11.69 133.95-12.99 133.95-14.16Z" opacity="1" transform="matrix(1,0,0,1,0,0)" fill="#0074d9" class="wordmark-text-0" data-fill-palette-color="primary" id="text-0"></path></svg></g></svg></g></svg></g></svg></g><g></g></svg></g></svg></g></svg></g><g><path d="M0 247.2v-247.2h395.52v247.2zM386.327 238.007v-228.814h-377.134v228.814z" fill="#0074d9" fill-rule="nonzero" stroke="none" stroke-width="1" stroke-linecap="butt" stroke-linejoin="miter" stroke-miterlimit="10" stroke-dasharray="" stroke-dashoffset="0" font-family="none" font-weight="none" font-size="none" text-anchor="none" style="mix-blend-mode: normal" data-fill-palette-color="tertiary"></path></g></svg></g><defs></defs></svg><rect width="395.52" height="247.2" fill="none" stroke="none" visibility="hidden"></rect></g></svg></g></svg>